<?xml version="1.0" encoding="UTF-8" standalone="no"?>
<!-- Created with Inkscape (http://www.inkscape.org/) -->

<svg
   xmlns:dc="http://purl.org/dc/elements/1.1/"
   xmlns:cc="http://creativecommons.org/ns#"
   xmlns:rdf="http://www.w3.org/1999/02/22-rdf-syntax-ns#"
   xmlns:svg="http://www.w3.org/2000/svg"
   xmlns="http://www.w3.org/2000/svg"
   xmlns:sodipodi="http://sodipodi.sourceforge.net/DTD/sodipodi-0.dtd"
   xmlns:inkscape="http://www.inkscape.org/namespaces/inkscape"
   width="156.59901mm"
   height="164.37753mm"
   viewBox="0 0 156.59901 164.37753"
   version="1.1"
   id="svg8"
   inkscape:version="0.92.1 r15371"
   sodipodi:docname="peridynamic.svg">
  <sodipodi:namedview
     id="base"
     pagecolor="#ffffff"
     bordercolor="#666666"
     borderopacity="1.0"
     inkscape:pageopacity="0.0"
     inkscape:pageshadow="2"
     inkscape:zoom="1"
     inkscape:cx="114.1034"
     inkscape:cy="310.79077"
     inkscape:document-units="mm"
     inkscape:current-layer="layer1"
     showgrid="false"
     inkscape:window-width="1920"
     inkscape:window-height="1015"
     inkscape:window-x="0"
     inkscape:window-y="0"
     inkscape:window-maximized="1"
     inkscape:snap-global="false"
     fit-margin-top="-30"
     fit-margin-left="-60"
     fit-margin-right="-5"
     fit-margin-bottom="-30" />
  <defs
     id="defs2">
    <marker
       inkscape:isstock="true"
       style="overflow:visible"
       id="marker5655"
       refX="0"
       refY="0"
       orient="auto"
       inkscape:stockid="Arrow1Lend">
      <path
         transform="matrix(-0.8,0,0,-0.8,-10,0)"
         style="fill:#000000;fill-opacity:1;fill-rule:evenodd;stroke:#000000;stroke-width:1.00000003pt;stroke-opacity:1"
         d="M 0,0 5,-5 -12.5,0 5,5 Z"
         id="path5388"
         inkscape:connector-curvature="0" />
    </marker>
    <marker
       inkscape:isstock="true"
       style="overflow:visible"
       id="marker5648"
       refX="0"
       refY="0"
       orient="auto"
       inkscape:stockid="Arrow1Lstart">
      <path
         transform="matrix(0.8,0,0,0.8,10,0)"
         style="fill:#000000;fill-opacity:1;fill-rule:evenodd;stroke:#000000;stroke-width:1.00000003pt;stroke-opacity:1"
         d="M 0,0 5,-5 -12.5,0 5,5 Z"
         id="path5385"
         inkscape:connector-curvature="0" />
    </marker>
    <marker
       inkscape:stockid="Arrow1Lend"
       orient="auto"
       refY="0"
       refX="0"
       id="Arrow1Lend"
       style="overflow:visible"
       inkscape:isstock="true">
      <path
         id="path4532"
         d="M 0,0 5,-5 -12.5,0 5,5 Z"
         style="fill:#000000;fill-opacity:1;fill-rule:evenodd;stroke:#000000;stroke-width:1.00000003pt;stroke-opacity:1"
         transform="matrix(-0.8,0,0,-0.8,-10,0)"
         inkscape:connector-curvature="0" />
    </marker>
    <marker
       inkscape:stockid="Arrow1Lstart"
       orient="auto"
       refY="0"
       refX="0"
       id="Arrow1Lstart"
       style="overflow:visible"
       inkscape:isstock="true">
      <path
         id="path4529"
         d="M 0,0 5,-5 -12.5,0 5,5 Z"
         style="fill:#000000;fill-opacity:1;fill-rule:evenodd;stroke:#000000;stroke-width:1.00000003pt;stroke-opacity:1"
         transform="matrix(0.8,0,0,0.8,10,0)"
         inkscape:connector-curvature="0" />
    </marker>
    <inkscape:path-effect
       effect="bspline"
       id="path-effect4509"
       is_visible="true"
       weight="33.333333"
       steps="2"
       helper_size="0"
       apply_no_weight="true"
       apply_with_weight="true"
       only_selected="false" />
  </defs>
  <metadata
     id="metadata5">
    <rdf:RDF>
      <cc:Work
         rdf:about="">
        <dc:format>image/svg+xml</dc:format>
        <dc:type
           rdf:resource="http://purl.org/dc/dcmitype/StillImage" />
        <dc:title />
      </cc:Work>
    </rdf:RDF>
  </metadata>
  <g
     inkscape:label="Layer 1"
     inkscape:groupmode="layer"
     id="layer1"
     transform="translate(-23.162285,-40.743836)">
    <path
       style="fill:none;stroke-width:0.26458332;stroke-miterlimit:4;stroke-dasharray:none;stroke-dashoffset:0;paint-order:normal"
       id="path4485"
       d="m 110.42719,48.807862 c -1.22514,-0.0245 -2.45062,-0.01461 -3.67592,-0.01913 -1.86645,-0.0031 -3.73297,-0.01146 -5.59931,-0.03266 -2.908309,-0.01664 -5.816667,-0.0096 -8.724986,-5.29e-4 -1.880026,0.0024 -3.759954,0.0227 -5.639924,0.03503 -1.064665,0.04842 -2.178955,-0.152726 -3.20021,0.243544 -0.219464,0.08516 -0.420365,0.212037 -0.630544,0.318055 -0.201097,0.108286 -0.39892,0.222888 -0.60329,0.324861 -0.476665,0.237834 -1.886834,0.988661 -1.426046,0.721363 7.599056,-4.408078 4.157721,-2.404312 2.513671,-1.39508 -2.901442,1.8194 -5.906674,3.462491 -8.865695,5.18527 1.383512,-0.793514 2.762369,-1.595204 4.150537,-2.380549 0.200271,-0.1133 -0.387667,0.24823 -0.586417,0.364175 -1.765556,1.029986 -3.528671,2.06438 -5.30625,3.073472 -0.199142,0.113048 -0.415938,0.191765 -0.621917,0.291814 -0.205853,0.09999 -0.811352,0.423212 -0.61347,0.308248 1.382921,-0.803442 2.779686,-1.58282 4.169526,-2.374231 -1.144029,0.726543 -2.118262,1.677564 -3.083594,2.619719 -0.831969,0.870577 -1.59226,1.805707 -2.395834,2.702274 -0.90559,1.046433 -1.730254,2.15713 -2.623767,3.213759 -1.081908,1.275281 -1.889736,2.749206 -2.726854,4.189291 -1.009126,1.794417 -2.071534,3.561395 -3.239529,5.257286 -1.006729,1.263881 -1.812764,2.660253 -2.496228,4.120105 -0.649536,1.511824 -0.918871,3.132093 -1.260596,4.730044 -0.572019,2.847871 -1.462273,5.621059 -2.162144,8.440396 -0.509653,2.0296 -0.683635,4.11203 -0.768199,6.195584 -0.05445,1.613312 -0.02302,3.230353 -0.208753,4.837107 -0.08054,0.69672 -0.34724,2.28917 -0.459235,2.97905 -0.649907,3.34551 -1.298734,6.67884 -1.663756,10.06943 -0.369117,3.88621 -0.412601,7.79215 -0.407201,11.69269 0.0013,2.81698 0.07951,5.6461 0.400899,8.44663 0.340333,2.5835 0.976048,5.11228 1.569135,7.64616 0.780397,2.68509 1.959573,5.23277 3.126404,7.76703 1.02435,2.1657 2.130489,4.28839 3.317105,6.36927 1.361001,2.30778 2.641973,4.66796 4.121214,6.90321 1.181483,1.66364 2.37505,3.33748 3.760935,4.83944 1.074,1.11274 2.277597,2.09702 3.566692,2.94944 1.961684,1.25349 4.225261,1.76104 6.480844,2.18837 2.036588,0.49428 4.043061,1.08896 6.109571,1.45229 1.088046,0.1886 2.192774,0.20004 3.29343,0.20965 1.764453,0.003 3.528824,0.0189 5.293267,0.0258 1.866694,-0.0498 3.739026,0.0774 5.60514,0.007 1.183769,-0.0448 1.558509,-0.12923 2.711409,-0.2963 0.44169,-0.0638 0.89109,-0.0873 1.32507,-0.19127 0.4402,-0.1055 0.86041,-0.28202 1.28659,-0.4346 2.02635,-0.72548 3.90609,-1.70146 5.81288,-2.6899 -1.03634,0.57849 -2.03432,1.23179 -3.109,1.73547 -0.52339,0.2453 0.98,-0.61505 1.44653,-0.95632 2.1322,-1.5597 3.74881,-3.61675 5.41622,-5.63774 2.43643,-3.03814 4.29146,-6.46569 5.93819,-9.97812 1.30545,-3.09676 2.34996,-6.30072 3.04754,-9.58806 0.64481,-3.06893 0.84398,-6.20135 0.97498,-9.32657 0.0754,-2.43476 0.0662,-4.87077 0.0428,-7.3062 -0.0208,-1.71351 -0.0252,-3.42712 -0.0219,-5.14073 -0.008,-1.93271 0.012,-3.86527 0.0149,-5.79801 0.0663,-1.98264 0.54857,-3.89567 1.31943,-5.71375 0.54787,-1.29321 1.41991,-2.29867 2.54296,-3.11457 3.07437,-1.94266 5.49938,-3.54144 8.91259,-4.18757 1.20694,-0.30258 2.43345,-0.47718 3.67381,-0.55112 1.35314,-0.10959 2.70183,-0.25232 4.05942,-0.32169 2.19821,-0.0989 4.34832,-0.48928 6.48904,-0.97281 1.98275,-0.34888 3.81839,-1.1868 5.55331,-2.17847 -8.09942,4.39817 -4.29178,2.82897 -3.00011,1.48632 0.64934,-0.67496 1.11611,-1.51331 1.61513,-2.29747 1.32308,-2.02158 2.22227,-4.273232 3.33679,-6.408002 1.31954,-2.292601 2.37061,-4.721177 3.38107,-7.161334 0.94261,-2.214996 1.41943,-4.561707 1.67485,-6.94251 0.19965,-2.251358 0.21907,-4.497618 -0.1591,-6.727568 -0.27107,-1.449602 -0.94578,-2.710247 -1.84707,-3.855406 -0.8341,-1.082741 -1.72374,-2.125233 -2.70686,-3.075193 -1.52658,-1.51112 -3.17201,-2.89296 -4.76182,-4.335783 -1.8838,-1.549305 -3.55278,-3.33021 -5.15937,-5.159777 -1.10421,-1.510191 -1.96664,-3.180257 -2.62429,-4.927798 -0.617,-1.343123 -0.90556,-2.755255 -1.05474,-4.214159 -0.042,-1.131557 -0.26705,-2.304053 -0.001,-3.424571 0.0648,-0.272926 0.17349,-0.533503 0.26024,-0.800254 0.964,-2.009896 2.36041,-3.766447 3.65565,-5.567748 1.40441,-1.922357 2.12109,-3.762976 2.54243,-6.083269 0.3674,-2.723856 0.35173,-5.477976 0.21027,-8.216701 -0.47199,-2.668957 -2.02897,-4.921723 -3.9106,-6.807607 -1.26296,-1.220694 -2.92212,-1.558912 -4.58001,-1.892028 -1.36184,-0.236374 -2.74798,-0.243093 -4.12578,-0.262789 -2.15591,-0.177598 -3.45285,0.331939 -5.38888,1.176015 1.19614,-0.677211 2.37298,-1.389717 3.58842,-2.031633 0.36385,-0.192157 -0.69356,0.443443 -1.02994,0.680419 -1.26844,0.893618 -2.33875,1.947259 -3.37812,3.091199 -1.14639,1.266099 -2.14255,2.65369 -3.05185,4.096564 -0.62188,1.07182 -1.10338,2.199248 -1.34102,3.415121 -0.24801,1.671388 -0.65811,3.311283 -1.06935,4.948125 -0.42038,1.532922 -0.85286,3.056983 -1.10598,4.627655 -0.20707,1.504413 -0.63445,2.964003 -0.97931,4.439497 -0.15435,1.143481 -0.63835,2.187554 -1.02013,3.263717 -0.25559,1.323393 -0.83219,2.488295 -1.54128,3.619979 -0.58977,0.997831 -1.19657,1.979366 -2.08093,2.741242 -1.30698,0.765543 -4.29719,4.067254 -6.43056,2.603093 -0.65891,-0.465958 -1.32046,-0.90342 -2.02091,-1.304835 -0.55024,-0.299509 -1.06035,-0.69159 -1.66674,-0.873924 -0.06,-0.01445 -0.12009,-0.02888 -0.18014,-0.04333 0,0 4.65981,-3.169251 4.65981,-3.169251 v 0 c 0.0651,0.02574 0.13022,0.05146 0.19534,0.07719 0.5843,0.27822 1.12481,0.634952 1.68368,0.959477 0.69723,0.397608 1.33251,0.880991 2.02869,1.278115 0.28874,0.09085 0.53534,0.15725 0.81535,0.01177 0.0772,-0.04013 0.303,-0.171482 0.22787,-0.127524 -1.50794,0.882301 -3.01756,1.761717 -4.52634,2.642579 1.02727,-0.571238 1.64832,-1.568122 2.22294,-2.563109 0.70485,-1.08612 1.39783,-2.174399 1.56749,-3.487936 0.35907,-1.073785 0.88334,-2.094391 1.06112,-3.221228 0.34774,-1.468577 0.78826,-2.917743 1.02658,-4.410181 0.21306,-1.594609 0.62376,-3.135164 1.07524,-4.6777 0.42477,-1.612136 0.86446,-3.227322 1.06088,-4.886873 0.16673,-1.302194 0.65369,-2.474437 1.27673,-3.627787 0.9056,-1.480107 1.88915,-2.915099 3.05621,-4.204075 0.76592,-0.862714 1.52471,-1.721378 2.40472,-2.472566 2.31632,-1.977243 5.16107,-3.284977 7.76165,-4.78209 0.75208,-0.311274 1.29242,-0.566534 2.07169,-0.775274 1.14973,-0.307969 2.32289,-0.279977 3.50156,-0.254782 1.40895,0.01533 2.82619,0.03561 4.209,0.340854 1.72881,0.405988 3.4195,0.86939 4.68771,2.206827 1.91419,2.024157 3.50425,4.399948 4.08401,7.163084 0.11544,2.766432 0.13834,5.547022 -0.12751,8.305806 -0.13409,0.857263 -0.1842,1.354997 -0.42486,2.19013 -0.42859,1.487252 -1.17473,2.851309 -2.03583,4.128268 -1.259,1.772163 -2.60345,3.487234 -3.64618,5.402019 -0.23955,0.576151 -0.37601,0.781523 -0.44128,1.401125 -0.0901,0.855374 0.0961,1.740929 0.0812,2.596753 0.12774,1.412287 0.39681,2.786557 0.97951,4.090691 0.6258,1.694124 1.40501,3.324061 2.48109,4.784965 1.5608,1.842823 3.24316,3.57604 5.11417,5.107967 1.60458,1.44599 3.25049,2.845268 4.83555,4.312957 0.99978,0.973783 1.901,2.037792 2.7671,3.131595 0.93473,1.232903 1.62935,2.587516 1.91742,4.123931 0.40383,2.274996 0.3622,4.567981 0.20178,6.868816 -0.19312,2.437844 -0.72284,4.823304 -1.62778,7.101866 -1.01718,2.442731 -2.0291,4.900012 -3.34612,7.200276 -1.13255,2.126797 -2.03638,4.374604 -3.29142,6.433523 -0.6212,0.999196 -1.17094,2.176283 -2.04309,2.992725 -1.67076,1.56403 -5.49805,0.5103 -5.90245,3.50713 -1.75586,0.93785 -3.62183,1.6533 -5.58845,2.00656 -2.1767,0.47885 -4.3737,0.81761 -6.60137,0.94639 -1.36531,0.0897 -2.72163,0.26269 -4.08655,0.35258 -1.21763,0.1086 -2.41928,0.31474 -3.61003,0.5931 -0.73122,0.16361 -1.43628,0.34807 -2.13326,0.62887 -1.85187,0.74611 -5.01368,2.76481 2.81777,-1.81301 -1.17195,0.68956 -2.10315,1.59918 -2.70008,2.84059 -0.83375,1.73837 -1.33589,3.59017 -1.45674,5.52113 0.003,1.92684 0.0231,3.8535 0.0184,5.78033 0.007,1.71728 0.0109,3.43459 -2.6e-4,5.15186 -0.0161,2.45282 -0.0153,4.90618 -0.094,7.35801 -0.12495,3.15604 -0.39109,6.31142 -0.9589,9.42159 -0.22787,1.05087 -0.45874,2.19081 -0.75229,3.22382 -0.62607,2.2031 -1.43769,4.36959 -2.28584,6.49284 -1.64137,3.55603 -3.50193,7.02725 -5.92748,10.11949 -1.26278,1.5526 -2.48277,3.19572 -3.9294,4.587 -2.5459,2.4485 -6.00483,3.84306 -8.89896,5.71362 -2.7212,1.39468 -5.49969,2.88433 -8.589464,3.2063 -2.780461,0.31991 -5.572548,0.22118 -8.367302,0.24043 -1.798341,0.0121 -3.596571,0.0425 -5.394958,0.0391 -1.11511,-0.0161 -2.231482,-0.0675 -3.324452,-0.31064 -2.02723,-0.43264 -4.005572,-1.04962 -6.02565,-1.51046 -2.325904,-0.46125 -4.643522,-1.0139 -6.656977,-2.32853 -1.328558,-0.87565 -2.593748,-1.87614 -3.66566,-3.05706 -1.347305,-1.56949 -2.550154,-3.26202 -3.750921,-4.94403 -1.43138,-2.27633 -2.719546,-4.63822 -4.103092,-6.94354 -1.226084,-2.0788 -2.364031,-4.20535 -3.352625,-6.40859 -1.178118,-2.57254 -2.333339,-5.16429 -3.119393,-7.88979 -0.638177,-2.5353 -1.357362,-5.05891 -1.67723,-7.66103 -0.359905,-2.83264 -0.296612,-5.71296 -0.326128,-8.5631 0.06332,-3.913 0.02924,-7.8382 0.380584,-11.73828 0.130149,-1.24006 0.241594,-2.42753 0.424236,-3.66167 0.318204,-2.15014 0.835512,-4.264 1.176488,-6.40998 0.103942,-0.63662 0.37987,-2.27596 0.453792,-2.92702 0.180533,-1.59005 0.145833,-3.191194 0.162753,-4.78782 0.07126,-2.127358 0.238781,-4.253325 0.770163,-6.323226 0.705284,-2.805761 1.640874,-5.559378 2.15511,-8.407371 0.296715,-1.625994 0.505336,-3.266112 1.136785,-4.808268 0.643663,-1.507286 1.451875,-2.960031 2.488645,-4.233857 1.197739,-1.659205 2.264772,-3.408394 3.248633,-5.201793 0.812612,-1.47348 1.649071,-2.947834 2.677679,-4.282752 0.895802,-1.041249 1.719492,-2.135306 2.572451,-3.210838 0.820822,-0.892201 1.606838,-1.814155 2.394069,-2.73594 0.970629,-0.959625 1.942851,-1.930196 3.046767,-2.738154 1.779987,-1.032719 3.553653,-2.076408 5.339963,-3.098154 0.198702,-0.113657 0.410583,-0.202594 0.614056,-0.307473 3.113701,-1.604936 -6.022123,3.519954 -2.994641,1.741446 1.774036,-1.042168 3.554478,-2.073394 5.331719,-3.11009 2.086914,-1.182375 0.305969,-0.176162 -3.426008,1.994987 -0.22357,0.130067 0.450744,-0.253873 0.674103,-0.384299 1.400813,-0.817973 -0.02976,0.0071 1.421807,-0.880555 0.246158,-0.150534 0.498399,-0.290896 0.747596,-0.436345 2.918045,-1.835671 5.877402,-3.630525 9.008835,-5.079026 1.379609,-0.476563 2.540506,-0.415711 3.973362,-0.392078 1.847826,0.01236 3.695605,0.03294 5.543489,0.03503 2.908697,0.0093 5.817426,0.01614 8.726126,-5.29e-4 1.89631,-0.0209 3.79278,-0.02959 5.68921,-0.03266 1.24285,-0.0045 2.48586,0.0051 3.72856,-0.01913 0,0 -4.5424,3.300249 -4.5424,3.300249 z"
       inkscape:connector-curvature="0" />
    <path
       style="fill:none;stroke-width:0.26458332;stroke-miterlimit:4;stroke-dasharray:none;stroke-dashoffset:0;paint-order:normal"
       id="path4487"
       d="m 46.342262,58.056234 c 0.286827,0.201097 0.591707,0.378637 0.860484,0.60329 6.538433,5.465069 11.430664,12.521459 16.473098,19.303941 8.103071,11.582792 16.140131,23.221215 25.110463,34.160295 2.290252,2.7929 4.555803,5.61387 7.02595,8.249 2.41186,2.57296 5.068723,4.90477 7.603083,7.35716 6.68605,5.22107 8.56988,7.16335 15.97152,11.14432 4.72822,2.54308 10.63481,4.88529 15.80645,6.41336 6.43286,1.90072 8.24194,1.93447 14.73703,2.87636 2.26416,0.0206 4.53295,0.20828 6.79247,0.0619 3.57274,-0.23138 8.19945,-1.12235 11.53001,-2.59174 1.65032,-0.72809 3.32364,-1.53321 4.67045,-2.73313 0.31857,-0.28383 -0.37342,-0.88677 -0.18033,-1.26725 0.82159,-1.61892 2.06472,-2.98673 3.09708,-4.48009 2.71723,-5.44711 4.49607,-10.72759 4.77069,-16.86291 0.0952,-2.12603 0.0742,-4.27184 -0.20907,-6.38107 -0.78602,-5.85295 -1.97277,-7.6884 -4.22931,-13.09563 -1.14995,-1.94116 -2.11894,-4.001629 -3.44986,-5.823473 -4.38299,-5.999666 -10.46171,-10.383028 -17.19041,-13.408819 -5.86078,-2.635496 -9.38491,-3.276904 -15.56187,-4.885103 -2.80586,-0.358523 -5.59124,-0.960313 -8.41756,-1.075568 -5.56917,-0.22711 -12.07999,0.517144 -17.39066,2.246278 -2.95212,0.961197 -5.78254,2.294324 -8.5303,3.739563 -4.73729,2.491671 -8.456777,7.154719 -12.046318,10.766229 -2.349823,3.317261 -4.917861,6.490261 -7.049469,9.951783 -4.803002,7.7996 -7.878069,14.91889 -10.869951,23.56904 -2.685857,7.76536 -4.954558,16.53898 -6.034024,24.69101 -0.554535,4.1878 -0.597873,8.42753 -0.89681,12.6413 0.208219,4.07139 0.168293,8.16309 0.62466,12.21418 0.433485,3.84799 1.174295,7.66214 2.039657,11.43654 1.598398,6.97165 3.521739,12.64213 6.757249,18.99393 3.040483,5.96894 4.832173,7.8725 8.744617,12.98953 2.920661,3.47579 6.327854,6.46419 9.784437,9.38262 1.135507,0.95872 2.306685,1.87086 3.414422,2.86159 1.44588,2.13088 -3.275122,5.04755 -5.184847,3.65292 -0.456959,-0.3337 -0.45271,-0.56639 -0.681135,-1.10537 -0.141029,-1.92215 0.608443,-3.74551 1.267187,-5.51373 1.257065,-3.37425 1.36938,-3.47328 2.958163,-7.09629 4.691982,-9.87057 7.426482,-20.51941 9.283342,-31.25399 0.46002,-2.65941 0.80281,-5.33778 1.20421,-8.00667 0.9708,-8.62455 1.96408,-17.30441 1.86305,-26.00164 -0.0315,-2.70931 -0.20275,-5.41765 -0.44506,-8.11629 -0.21101,-2.35005 -0.4587,-4.70409 -0.91397,-7.01924 -0.4302,-2.1877 -1.15771,-4.30628 -1.73656,-6.45943 -0.79153,-1.96653 -1.48434,-3.97573 -2.3746,-5.89958 -1.6309,-3.5244 -3.88344,-7.21315 -5.982559,-10.47468 -2.229911,-3.46475 -4.887142,-7.34681 -7.412566,-10.61075 -1.32148,-1.70792 -2.735559,-3.34214 -4.103338,-5.01322 -5.483548,-6.407585 -11.465148,-12.410668 -18.332985,-17.336643 -3.49944,-2.509986 -4.555421,-3.017396 -8.129706,-5.092134 -2.600267,-1.423668 -5.317215,-2.603236 -8.156721,-3.453736 -1.582613,-0.47403 -3.184636,-0.8387 -4.757835,-1.347549 -2.166559,-0.679048 -4.143285,-1.794005 -6.128663,-2.874513 -1.816198,-1.003504 -3.679465,-1.932898 -5.420484,-3.064777 -0.849654,-0.661363 -1.732931,-1.229291 -1.81247,-2.378107 0.05125,-0.145915 0.07527,-0.304477 0.153739,-0.437745 0.255405,-0.433777 0.783516,-0.772491 1.140719,-1.113629 0.478714,-0.457181 0.531183,-0.526584 0.991026,-1.015934 0,0 5.112917,-2.141955 5.112917,-2.141955 v 0 c -0.719913,0.794684 -1.42335,1.669634 -2.3739,2.196925 -0.278778,0.818274 0.952802,1.460455 1.432568,1.910556 1.717008,1.128189 3.558275,2.056509 5.352719,3.053364 1.963912,1.048244 3.926975,2.108112 6.046772,2.814632 1.530344,0.518377 3.097342,0.923171 4.624025,1.449845 2.768579,0.955106 5.397034,2.247299 7.916846,3.736663 1.236247,0.769895 2.494622,1.505346 3.708744,2.309682 2.818609,1.867287 6.259605,4.356899 8.808739,6.532703 4.958947,4.232693 9.376894,9.073944 13.720632,13.91698 1.376887,1.675962 2.805658,3.310612 4.130657,5.027892 1.304509,1.69072 2.521402,3.4475 3.754117,5.19126 3.597007,5.08821 7.114297,10.29512 9.699367,15.992 0.88438,1.94898 1.56637,3.9836 2.34955,5.97539 0.56847,2.18239 1.30406,4.32794 1.7054,6.54714 0.42529,2.35167 0.58784,4.74518 0.76778,7.12821 0.20564,2.7232 0.36906,5.45277 0.38842,8.18366 0.0617,8.69512 -0.91035,17.3687 -1.75946,26.00602 -0.40055,2.67448 -0.75811,5.35575 -1.20164,8.02345 -1.76409,10.61029 -4.09651,21.25702 -8.64464,31.06019 -1.53103,3.75455 -1.48581,3.44647 -2.63575,6.90077 -0.543548,1.63275 -1.124179,3.30965 -1.21455,5.04232 0.102698,0.22965 0.140576,0.56046 0.444976,0.62024 0.07976,0.0157 0.307652,-0.0905 0.239432,-0.0463 -1.488855,0.96461 -3.0245,1.85557 -4.515583,2.81674 -0.06172,0.0398 0.187526,0.0229 0.215646,-0.045 0.03734,-0.0901 -0.05362,-0.18747 -0.08043,-0.2812 -0.949944,-1.08463 -2.005695,-2.05766 -3.039473,-3.06229 -3.225114,-3.1342 -6.469538,-6.26001 -9.241162,-9.81939 -3.792289,-5.29755 -5.458312,-7.19213 -8.418203,-13.29159 -3.281931,-6.76309 -4.899515,-11.83256 -6.503784,-19.23225 -0.825741,-3.80872 -1.552556,-7.6499 -1.966439,-11.52507 -0.435393,-4.07658 -0.384429,-8.1905 -0.576643,-12.28575 0.30176,-4.23034 0.357293,-8.48549 0.905277,-12.69103 1.152816,-8.84732 3.153558,-16.35621 6.053997,-24.76954 3.049675,-8.84621 5.855676,-15.54667 10.669508,-23.56927 2.063586,-3.43912 4.542182,-6.611519 6.813272,-9.917278 2.467737,-2.568583 4.603859,-5.503259 7.403211,-7.705752 4.720848,-3.7143 13.785108,-8.777467 19.963968,-10.749287 5.37898,-1.716556 11.9012,-2.415405 17.5281,-2.174002 2.85457,0.122467 5.6686,0.722021 8.5029,1.083029 6.01226,1.595253 9.94704,2.384531 15.67114,4.934133 6.80758,3.032207 13.03448,7.452383 17.46184,13.523497 1.34108,1.838983 2.29808,3.929406 3.44713,5.894107 2.23757,5.290903 3.55584,7.458483 4.39855,13.188713 0.54151,3.68208 0.337,8.91887 -0.38616,12.58034 -0.80751,4.08851 -2.29333,7.05508 -3.9013,10.85883 -1.01113,1.52135 -1.72327,3.29108 -3.03338,4.56407 -2.32057,2.25481 -8.79468,7.08743 -12.60145,8.68085 -3.31087,1.38586 -7.92748,2.17884 -11.44864,2.35171 -2.25342,0.11063 -4.5111,-0.10282 -6.76664,-0.15423 -6.17075,-0.9815 -8.56366,-1.14637 -14.65677,-3.03314 -4.85008,-1.50186 -11.27144,-4.18784 -15.66157,-6.6157 -7.27531,-4.02344 -9.2867,-6.09222 -15.84732,-11.32155 -2.529131,-2.47033 -5.189342,-4.81323 -7.587391,-7.411 -2.448141,-2.65204 -4.652465,-5.51963 -6.932141,-8.3178 -2.422935,-2.97402 -4.826876,-5.96424 -7.17487,-8.99778 C 72.136491,96.843936 66.226612,88.368758 59.905754,80.203039 54.561914,73.266222 49.24331,65.785981 41.677359,61.082689 c 0,0 4.664903,-3.026455 4.664903,-3.026455 z"
       inkscape:connector-curvature="0" />
    <path
       style="fill:none;stroke-width:0.26458332;stroke-miterlimit:4;stroke-dasharray:none;stroke-dashoffset:0;paint-order:normal"
       id="path4489"
       d="m 58.55749,91.171317 c 1.719363,3.725405 4.426836,6.974377 7.197434,9.959863 1.269931,1.36842 2.562738,2.72096 3.947731,3.9728 1.650487,1.49181 3.431818,2.83215 5.147726,4.24823 2.155012,1.41035 4.247044,2.92197 6.465038,4.23105 10.222989,6.03368 21.637241,10.34975 32.841131,14.17395 2.84474,0.97099 5.71921,1.85256 8.57881,2.77883 7.04867,2.2377 14.18127,4.18637 21.32649,6.08533 0,0 -3.80879,2.61043 -3.80879,2.61043 v 0 c -6.98444,-2.08544 -13.95982,-4.20064 -20.91303,-6.38849 -2.85595,-0.9334 -5.72401,-1.83055 -8.56787,-2.8002 -6.34963,-2.16497 -10.68491,-3.75193 -16.846128,-6.34937 -5.717104,-2.41021 -10.852579,-4.70972 -16.243242,-7.77533 -2.273662,-1.293 -4.430273,-2.78177 -6.645412,-4.17266 -1.778865,-1.39603 -3.631007,-2.70342 -5.336593,-4.18809 -1.418392,-1.23466 -2.702155,-2.61651 -4.020765,-3.95722 -2.931326,-2.98046 -5.863232,-6.058488 -7.994858,-9.684126 0,0 4.872328,-2.744997 4.872328,-2.744997 z"
       inkscape:connector-curvature="0" />
    <path
       style="fill:none;stroke-width:0.26458332;stroke-miterlimit:4;stroke-dasharray:none;stroke-dashoffset:0;paint-order:normal"
       id="path4491"
       d="m 141.26819,161.87903 c -2.33653,0.30723 -4.56829,1.20099 -6.72773,2.10384 -3.56646,1.49114 -4.43189,1.91942 -8.0368,3.55803 -11.31647,4.98209 -23.44038,7.76312 -35.472707,10.38827 -14.015265,3.05778 -14.026144,2.90813 -28.804065,5.55434 -20.674711,3.53625 -41.384692,6.86263 -62.05363721,10.43294 -24.22123079,4.18393 0.0451793,0.0708 -20.61996479,3.55584 -5.444775,0.83485 -10.876806,1.88801 -16.391001,2.12518 0,0 4.361794,-3.17588 4.361794,-3.17588 v 0 c 5.136615,0.13944 10.221844,-0.8053 15.303764,-1.40769 12.8018177,-1.87955 5.522348,-0.77384 19.9741162,-3.07368 20.6061718,-3.27924 41.2145288,-6.55429 61.7569498,-10.21699 11.864597,-2.25739 17.704313,-3.24707 29.191474,-5.86781 10.459677,-2.38633 20.862687,-5.06504 30.892397,-8.9175 1.91881,-0.73703 3.78059,-1.61471 5.67088,-2.42206 2.63336,-1.20161 5.59092,-2.57328 8.26252,-3.70782 2.30257,-0.97782 4.6794,-1.93006 7.17881,-2.25142 0,0 -4.4868,3.32241 -4.4868,3.32241 z"
       inkscape:connector-curvature="0" />
    <path
       style="fill:none;stroke-width:0.26458332;stroke-miterlimit:4;stroke-dasharray:none;stroke-dashoffset:0;paint-order:normal"
       id="path4493"
       d="m 58.511849,126.61856 c 3.520406,-2.68595 7.037922,-4.09857 11.114,-5.33761 3.92502,-1.2729 8.027594,-1.60726 12.120952,-1.81274 5.590561,-0.33705 11.146842,0.63657 16.657457,1.44726 2.667482,0.39823 5.349272,0.68017 8.032132,0.94817 0,0 -4.28903,3.04535 -4.28903,3.04535 v 0 c -2.652172,-0.3155 -5.301699,-0.65083 -7.945087,-1.03433 -5.521958,-0.82916 -11.09848,-1.66506 -16.698246,-1.28715 -4.09883,0.25736 -8.200459,0.65769 -12.118604,1.97557 -1.499225,0.48396 -2.977367,0.97172 -4.411237,1.62967 -0.287515,0.13192 -1.120235,0.58632 -0.850469,0.42111 4.834269,-2.96064 5.218568,-3.2913 3.615315,-2.04055 0,0 -5.227183,2.04525 -5.227183,2.04525 z"
       inkscape:connector-curvature="0" />
    <path
       style="fill:none;stroke:#000000;stroke-width:0.26458332px;stroke-linecap:butt;stroke-linejoin:miter;stroke-opacity:1"
       d="m 55.11519,61.296009 c 16.687665,-9.548091 57.49621,-8.737675 80.54934,3.028481 23.05313,11.766157 28.36421,34.544264 28.43369,55.49473 0.0695,20.95047 -5.09615,40.1011 -13.22264,55.03127 -8.12648,14.93018 -19.21361,25.63932 -28.66326,24.56833 -9.44966,-1.071 -17.26098,-13.92187 -29.167036,-20.97738 -11.906059,-7.0555 -27.907145,-8.31543 -41.615293,-15.04981 -13.708149,-6.73438 -25.122853,-18.94283 -24.429734,-28.6443 0.693119,-9.70148 13.493908,-16.89562 16.177448,-30.4458 2.68354,-13.550179 -4.75018,-33.457431 11.937485,-43.005521 z"
       id="path4507"
       inkscape:connector-curvature="0"
       inkscape:path-effect="#path-effect4509"
       inkscape:original-d="m 30.994048,50.937498 c 40.808812,0.810151 81.617362,1.620565 122.425642,2.431246 5.17879,22.749692 10.60936,45.499937 15.91364,68.250306 -5.16545,19.15069 -10.33108,38.30132 -15.49702,57.45238 -11.08722,10.70923 -22.17434,21.41838 -33.26191,32.12797 -7.81143,-12.85177 -15.62275,-25.70264 -23.434519,-38.55357 -16.000634,-1.26017 -32.00172,-2.5201 -48.002976,-3.77976 C 37.722116,156.65699 26.30741,144.44855 14.892262,132.24018 27.693323,125.04576 40.494115,117.85162 53.294643,110.65774 45.861564,90.751232 38.427844,70.84398 30.994048,50.937498 Z"
       sodipodi:nodetypes="cccccccccc" />
    <ellipse
       style="fill:none;stroke-width:0.26458332;stroke-miterlimit:4;stroke-dasharray:none;stroke-dashoffset:0;paint-order:normal"
       id="path4511"
       cx="115.14065"
       cy="129.31165"
       rx="12.993284"
       ry="4.402648" />
    <ellipse
       style="fill:none;stroke-width:0.26458332;stroke-miterlimit:4;stroke-dasharray:none;stroke-dashoffset:0;paint-order:normal"
       id="path4513"
       cx="110.55368"
       cy="146.23384"
       rx="2.8391685"
       ry="12.048899" />
    <ellipse
       style="fill:none;stroke-width:0.26458332;stroke-miterlimit:4;stroke-dasharray:none;stroke-dashoffset:0;paint-order:normal"
       id="path4515"
       cx="114.90475"
       cy="145.99852"
       rx="3.7797618"
       ry="13.96064" />
    <ellipse
       style="fill:none;stroke-width:0.26458332;stroke-miterlimit:4;stroke-dasharray:none;stroke-dashoffset:0;paint-order:normal"
       id="path4517"
       cx="125.11012"
       cy="147.6994"
       rx="22.678572"
       ry="0.37797621" />
    <ellipse
       style="fill:none;stroke-width:0.26458332;stroke-miterlimit:4;stroke-dasharray:none;stroke-dashoffset:0;paint-order:normal"
       id="path4519"
       cx="125.67708"
       cy="144.29762"
       rx="0.1889881"
       ry="0.75595242" />
    <ellipse
       style="fill:none;stroke-width:0.26458332;stroke-miterlimit:4;stroke-dasharray:none;stroke-dashoffset:0;paint-order:normal"
       id="path4521"
       cx="96.194946"
       cy="131.44643"
       rx="14.552083"
       ry="15.119047" />
    <circle
       style="fill:none;stroke:#000000;stroke-width:0.27481413;stroke-miterlimit:4;stroke-dasharray:none;stroke-dashoffset:0;paint-order:normal"
       id="path4523"
       cx="123.16228"
       cy="135.12137"
       r="29.862593" />
    <path
       style="fill:none;stroke:#000000;stroke-width:0.20523709;stroke-linecap:butt;stroke-linejoin:miter;stroke-miterlimit:4;stroke-dasharray:none;stroke-opacity:1;marker-end:url(#Arrow1Lend)"
       d="m 123.16373,134.33206 29.6007,-0.21423"
       id="path4527"
       inkscape:connector-curvature="0" />
    <text
       xml:space="preserve"
       style="font-style:normal;font-weight:normal;font-size:10.58333302px;line-height:1.25;font-family:sans-serif;letter-spacing:0px;word-spacing:0px;fill:#000000;fill-opacity:1;stroke:none;stroke-width:0.26458332"
       x="128.68614"
       y="115.22574"
       id="text4887"><tspan
         sodipodi:role="line"
         id="tspan4885"
         x="128.68614"
         y="124.58951"
         style="stroke-width:0.26458332" /></text>
    <text
       xml:space="preserve"
       style="font-style:normal;font-weight:normal;font-size:10.58333302px;line-height:1.25;font-family:sans-serif;letter-spacing:0px;word-spacing:0px;fill:#000000;fill-opacity:1;stroke:none;stroke-width:0.26458332"
       x="61.697369"
       y="71.453842"
       id="text4895"><tspan
         sodipodi:role="line"
         id="tspan4893"
         x="61.697369"
         y="80.817612"
         style="stroke-width:0.26458332" /></text>
    <g
       id="g4744"
       transform="matrix(0.4059545,0,0,0.35277347,102.36627,96.411215)">
      <g
         word-spacing="normal"
         letter-spacing="normal"
         font-size-adjust="none"
         font-stretch="normal"
         font-weight="normal"
         font-variant="normal"
         font-style="normal"
         stroke-miterlimit="10.433"
         xml:space="preserve"
         transform="matrix(0.3,0,0,-0.3,-52.5,222.75)"
         id="content"
         style="font-style:normal;font-variant:normal;font-weight:normal;font-stretch:normal;letter-spacing:normal;word-spacing:normal;text-anchor:start;fill:none;fill-opacity:1;fill-rule:evenodd;stroke:#000000;stroke-linecap:butt;stroke-linejoin:miter;stroke-miterlimit:10.43299961;stroke-dasharray:none;stroke-dashoffset:0;stroke-opacity:1"><path
           id="path4741"
           d="m 468.68,427.96 -0.58,-0.15 -0.58,-0.18 -0.56,-0.21 -0.55,-0.24 -0.54,-0.26 -0.53,-0.28 -0.52,-0.31 -0.5,-0.33 -0.49,-0.35 -0.48,-0.38 -0.47,-0.39 -0.44,-0.41 -0.44,-0.42 -0.41,-0.45 -0.4,-0.46 -0.38,-0.47 -0.37,-0.49 -0.34,-0.5 -0.33,-0.51 -0.3,-0.52 -0.28,-0.53 -0.27,-0.53 -0.24,-0.55 -0.22,-0.55 -0.19,-0.56 -0.17,-0.56 -0.15,-0.57 -0.12,-0.56 -0.09,-0.57 -0.07,-0.57 -0.04,-0.57 -0.02,-0.57 c 0,-4.78 3.19,-8.35 7.88,-8.35 v 1.09 c -2.75,0 -4.78,2.09 -4.78,5.87 0,3.14 1.84,12.5 8.56,14.3 v 0 c 1.25,-2.28 2.73,-4.98 2.73,-8.56 0,-3.3 -1.89,-11.61 -6.51,-11.61 v -1.09 c 5.83,0 9.95,7.81 9.95,14.68 0,4.55 -1.98,7.03 -3.69,9.27 -1.78,2.25 -4.71,5.98 -4.71,8.17 0,1.11 0.98,2.3 2.73,2.3 1.5,0 2.48,-0.64 3.53,-1.35 1,-0.59 2,-1.25 2.75,-1.25 1.24,0 1.99,1.21 1.99,2 0,1.1 -0.8,1.24 -2.6,1.64 -2.58,0.55 -3.28,0.55 -4.08,0.55 -3.89,0 -5.68,-2.14 -5.68,-5.12 0,-2.71 1.45,-5.49 3,-8.54 z"
           inkscape:connector-curvature="0"
           style="fill:#000000;stroke-width:0" /></g>    </g>
    <g
       transform="matrix(0.83962057,0,0,0.91576754,-13.351913,-20.186548)"
       id="g4818">
      <g
         style="font-style:normal;font-variant:normal;font-weight:normal;font-stretch:normal;letter-spacing:normal;word-spacing:normal;text-anchor:start;fill:none;fill-opacity:1;fill-rule:evenodd;stroke:#000000;stroke-linecap:butt;stroke-linejoin:miter;stroke-miterlimit:10.43299961;stroke-dasharray:none;stroke-dashoffset:0;stroke-opacity:1"
         id="g4816"
         transform="matrix(0.3,0,0,-0.3,-52.5,222.75)"
         xml:space="preserve"
         stroke-miterlimit="10.433"
         font-style="normal"
         font-variant="normal"
         font-weight="normal"
         font-stretch="normal"
         font-size-adjust="none"
         letter-spacing="normal"
         word-spacing="normal"><path
           style="fill:#000000;stroke-width:0"
           inkscape:connector-curvature="0"
           d="m 478.33,423.98 0.45,0.1 0.44,0.1 0.44,0.13 0.42,0.13 0.41,0.14 0.4,0.16 0.4,0.17 0.38,0.18 0.37,0.19 0.36,0.2 0.35,0.21 0.33,0.21 0.32,0.23 0.31,0.24 0.3,0.25 0.28,0.25 0.27,0.26 0.25,0.27 0.24,0.28 0.22,0.28 0.21,0.29 0.19,0.3 0.17,0.3 0.16,0.31 0.14,0.32 0.12,0.32 0.11,0.32 0.09,0.33 0.06,0.34 0.05,0.33 0.03,0.34 0.01,0.35 c 0,4.33 -4.59,8.42 -11.06,8.42 l -0.36,-1.55 c 4.85,0 6.58,-4.23 6.58,-6.87 0,-3.19 -2.44,-7.38 -7.97,-7.38 h -7.22 v -1.09 h 9.36 c 4.94,0 7.03,-4.64 7.03,-7.97 0,-3.55 -2.59,-7.62 -7.72,-7.62 v 0 h -6.23 c -2.34,0 -2.44,0.34 -2.44,1.98 v 13.61 1.09 12.25 c 0,1.66 0.1,2 2.44,2 h 6.17 l 0.36,1.55 h -18.23 v -1.55 h 1.18 c 3.85,0 3.94,-0.54 3.94,-2.34 v -26.25 c 0,-1.8 -0.09,-2.34 -3.94,-2.34 h -1.18 v -1.55 h 19.53 c 6.62,0 11.11,4.44 11.11,9.12 0,4.33 -4.1,8.07 -9.63,8.66 z"
           id="path4806" /><path
           style="fill:#000000;stroke-width:0"
           inkscape:connector-curvature="0"
           d="m 514.27,416.86 -0.02,0.59 -0.04,0.59 -0.07,0.58 -0.1,0.57 -0.12,0.56 -0.15,0.55 -0.18,0.54 -0.2,0.53 -0.22,0.51 -0.24,0.5 -0.27,0.49 -0.29,0.47 -0.31,0.46 -0.33,0.44 -0.34,0.43 -0.37,0.4 -0.38,0.39 -0.4,0.37 -0.42,0.35 -0.43,0.32 -0.45,0.31 -0.46,0.28 -0.48,0.26 -0.48,0.24 -0.5,0.21 -0.51,0.18 -0.52,0.16 -0.54,0.13 -0.53,0.11 -0.55,0.07 -0.56,0.05 -0.56,0.01 -0.05,-1.09 c 2.19,0 4.33,-1.1 5.63,-3.24 1.29,-2.14 1.29,-5.03 1.29,-6.92 0,-1.8 0,-4.48 -1.09,-6.67 -1.09,-2.25 -3.28,-3.69 -5.78,-3.69 v 0 c -2.14,0 -4.33,1.05 -5.67,3.33 -1.25,2.2 -1.25,5.23 -1.25,7.03 0,1.94 0,4.63 1.19,6.83 1.36,2.28 3.68,3.33 5.68,3.33 l 0.05,1.09 c -6.22,0 -11.06,-5.42 -11.06,-11.65 0,-6.43 5.19,-11.21 11.01,-11.21 6.03,0 11.07,4.88 11.07,11.21 z"
           id="path4808" /><path
           style="fill:#000000;stroke-width:0"
           inkscape:connector-curvature="0"
           d="m 536.13,408.93 v -3.28 l 7.32,0.55 v 1.55 c -3.49,0 -3.88,0.34 -3.88,2.78 v 30.25 l -7.17,-0.55 v -1.55 c 3.48,0 3.87,-0.34 3.87,-2.79 v -10.75 c -1.43,1.78 -3.57,3.07 -6.28,3.07 l 0.21,-1.09 c 1.75,0 3.84,-0.75 5.39,-2.98 0.54,-0.85 0.54,-0.96 0.54,-1.85 v 0 -10.22 c 0,-0.89 0,-1 -0.54,-1.84 -1.5,-2.39 -3.75,-3.48 -5.89,-3.48 -2.24,0 -4.04,1.29 -5.22,3.18 -1.3,2.05 -1.46,4.89 -1.46,6.93 0,1.84 0.1,4.84 1.55,7.07 1.05,1.55 2.94,3.19 5.63,3.19 l -0.21,1.09 c -5.87,0 -11.11,-4.87 -11.11,-11.29 0,-6.33 4.89,-11.27 10.57,-11.27 3.18,0 5.43,1.69 6.68,3.28 z"
           id="path4810" /><path
           style="fill:#000000;stroke-width:0"
           inkscape:connector-curvature="0"
           d="m 565.59,422.93 0.06,0.15 0.06,0.14 0.07,0.14 0.06,0.13 0.07,0.12 0.07,0.13 0.07,0.12 0.08,0.11 0.14,0.22 0.16,0.2 0.16,0.19 0.16,0.18 0.16,0.16 0.17,0.14 0.16,0.14 0.17,0.12 0.17,0.11 0.17,0.1 0.17,0.09 0.17,0.09 0.17,0.07 0.17,0.06 0.16,0.05 0.16,0.05 0.16,0.04 0.15,0.03 0.15,0.03 0.14,0.02 0.13,0.02 0.13,0.02 0.13,0.01 h 0.11 l 0.11,0.01 h 0.1 0.09 0.08 v 1.55 c -1.16,-0.1 -2.6,-0.14 -3.74,-0.14 -0.9,0 -3.25,0.09 -4.34,0.14 v -1.55 c 1.55,-0.05 2.34,-0.89 2.34,-2.14 0,-0.5 -0.04,-0.59 -0.29,-1.19 l -5.04,-12.26 -5.53,13.4 c -0.2,0.5 -0.29,0.71 -0.29,0.91 0,1.28 1.84,1.28 2.78,1.28 v 1.55 c -1.28,-0.05 -4.58,-0.14 -5.42,-0.14 -1.35,0 -3.35,0.04 -4.83,0.14 v -1.55 c 2.39,0 3.33,0 4.03,-1.73 l 7.47,-18.19 c -0.25,-0.64 -0.94,-2.3 -1.25,-2.94 -1.1,-2.73 -2.49,-6.19 -5.67,-6.19 -0.25,0 -1.4,0 -2.35,0.91 1.55,0.2 1.94,1.3 1.94,2.09 0,1.3 -0.94,2.1 -2.08,2.1 -1,0 -2.09,-0.66 -2.09,-2.14 0,-2.25 2.09,-4.05 4.58,-4.05 3.14,0 5.18,2.84 6.37,5.69 z"
           id="path4812" /><path
           style="fill:#000000;stroke-width:0"
           inkscape:connector-curvature="0"
           d="m 621.48,414.28 h -1.25 c -0.25,-1.3 -0.45,-2.46 -0.89,-3.64 -0.25,-0.8 -0.4,-1.21 -3.29,-1.21 h -3.99 c 0.64,2.8 2.19,5.19 4.44,8.47 2.34,3.55 4.38,6.99 4.38,10.92 0,6.93 -6.72,12.5 -15.15,12.5 -8.56,0 -15.18,-5.68 -15.18,-12.5 0,-3.93 2.03,-7.37 4.37,-10.92 2.19,-3.28 3.78,-5.67 4.44,-8.47 h -3.98 c -2.9,0 -3.05,0.41 -3.3,1.16 -0.39,1.14 -0.64,2.44 -0.89,3.69 h -1.25 l 1.65,-8.08 h 7.97 c 1.1,0 1.24,0 1.24,1.05 0,3.48 -1.53,7.87 -2.69,11.06 -1.05,2.89 -2.44,6.83 -2.44,10.56 0,7.97 5.49,11.36 10.02,11.36 4.78,0 10.06,-3.59 10.06,-11.36 0,-3.73 -1.34,-7.53 -2.8,-11.61 -0.73,-2.09 -2.33,-6.58 -2.33,-10.01 0,-1.05 0.15,-1.05 1.29,-1.05 h 7.92 z"
           id="path4814" /></g>    </g>
    <ellipse
       ry="0.88652229"
       rx="0.88652235"
       cy="134.12137"
       cx="124.16228"
       id="path5312"
       style="fill:#000000;stroke:#000000;stroke-width:0.22695537;stroke-miterlimit:4;stroke-dasharray:none;stroke-dashoffset:0;paint-order:normal" />
    <ellipse
       ry="0.88652229"
       rx="0.88652235"
       cy="120.97459"
       cx="111.88306"
       id="path5312-3"
       style="fill:#000000;stroke:#000000;stroke-width:0.22695537;stroke-miterlimit:4;stroke-dasharray:none;stroke-dashoffset:0;paint-order:normal" />
    <path
       inkscape:connector-curvature="0"
       id="path5383"
       d="M 124.4138,134.24416 112.37384,121.3798"
       style="fill:none;stroke:#000000;stroke-width:0.24427624px;stroke-linecap:butt;stroke-linejoin:miter;stroke-opacity:1;marker-end:url(#marker5655)" />
    <g
       id="g5853"
       transform="matrix(0.53741769,0,0,0.59101652,72.373733,79.100361)">
      <g
         id="g5851"
         transform="matrix(0.3,0,0,-0.3,-52.5,222.75)"
         xml:space="preserve"
         stroke-miterlimit="10.433"
         font-style="normal"
         font-variant="normal"
         font-weight="normal"
         font-stretch="normal"
         font-size-adjust="none"
         letter-spacing="normal"
         word-spacing="normal"
         style="font-style:normal;font-variant:normal;font-weight:normal;font-stretch:normal;letter-spacing:normal;word-spacing:normal;text-anchor:start;fill:none;fill-opacity:1;fill-rule:evenodd;stroke:#000000;stroke-linecap:butt;stroke-linejoin:miter;stroke-miterlimit:10.43299961;stroke-dasharray:none;stroke-dashoffset:0;stroke-opacity:1"><path
           d="m 472.16,421.25 0.03,0.13 0.04,0.15 0.04,0.16 0.04,0.18 0.06,0.19 0.06,0.21 0.06,0.22 0.07,0.22 0.08,0.23 0.09,0.24 0.1,0.25 0.1,0.24 0.11,0.25 0.12,0.25 0.13,0.25 0.14,0.25 0.15,0.24 0.15,0.24 0.17,0.23 0.18,0.22 0.18,0.22 0.2,0.2 0.21,0.19 0.22,0.18 0.23,0.16 0.25,0.14 0.12,0.07 0.13,0.06 0.14,0.05 0.13,0.05 0.14,0.05 0.14,0.04 0.15,0.03 0.15,0.03 0.15,0.02 0.16,0.02 0.16,0.01 h 0.16 c 0.25,0 1.44,0 2.48,-0.64 -1.39,-0.25 -2.39,-1.5 -2.39,-2.69 0,-0.79 0.55,-1.75 1.89,-1.75 1.1,0 2.69,0.89 2.69,2.89 0,2.6 -2.94,3.28 -4.63,3.28 -2.89,0 -4.64,-2.64 -5.23,-3.78 -1.25,3.28 -3.94,3.78 -5.37,3.78 -5.19,0 -8.04,-6.42 -8.04,-7.67 0,-0.5 0.5,-0.5 0.61,-0.5 0.39,0 0.55,0.11 0.64,0.55 1.69,5.28 4.99,6.53 6.68,6.53 0.95,0 2.68,-0.44 2.68,-3.33 0,-1.54 -0.84,-4.89 -2.68,-11.86 -0.8,-3.09 -2.54,-5.18 -4.74,-5.18 -0.3,0 -1.44,0 -2.48,0.65 1.25,0.24 2.34,1.28 2.34,2.69 0,1.34 -1.09,1.73 -1.84,1.73 -1.5,0 -2.75,-1.29 -2.75,-2.89 0,-2.28 2.5,-3.28 4.68,-3.28 3.3,0 5.08,3.49 5.24,3.78 0.59,-1.84 2.39,-3.78 5.37,-3.78 5.14,0 7.99,6.42 7.99,7.67 0,0.5 -0.45,0.5 -0.61,0.5 -0.44,0 -0.55,-0.2 -0.64,-0.54 -1.64,-5.33 -5.03,-6.53 -6.63,-6.53 -1.95,0 -2.75,1.59 -2.75,3.29 0,1.1 0.3,2.19 0.86,4.38 z"
           id="path5849"
           inkscape:connector-curvature="0"
           style="fill:#000000;stroke-width:0" /></g>    </g>
    <g
       id="g5955"
       transform="matrix(0.53720116,0,0,0.4744283,61.992012,70.459985)"
       inkscape:transform-center-x="14.917383"
       inkscape:transform-center-y="-8.5928234">
      <g
         word-spacing="normal"
         letter-spacing="normal"
         font-size-adjust="none"
         font-stretch="normal"
         font-weight="normal"
         font-variant="normal"
         font-style="normal"
         stroke-miterlimit="10.433"
         xml:space="preserve"
         transform="matrix(0.3,0,0,-0.3,-52.5,222.75)"
         id="g5953"
         style="font-style:normal;font-variant:normal;font-weight:normal;font-stretch:normal;letter-spacing:normal;word-spacing:normal;text-anchor:start;fill:none;fill-opacity:1;fill-rule:evenodd;stroke:#000000;stroke-linecap:butt;stroke-linejoin:miter;stroke-miterlimit:10.43299961;stroke-dasharray:none;stroke-dashoffset:0;stroke-opacity:1"><polygon
           id="polygon5949"
           points="471.21,438.18 476.95,433.11 477.84,434 471.21,440.78 464.54,434 465.43,433.11 "
           style="fill:#000000;stroke-width:0" /><path
           id="path5951"
           d="m 472.16,421.25 0.03,0.13 0.03,0.15 0.04,0.16 0.05,0.18 0.05,0.19 0.06,0.21 0.07,0.22 0.07,0.22 0.08,0.23 0.09,0.24 0.09,0.25 0.11,0.24 0.11,0.25 0.12,0.25 0.13,0.25 0.13,0.25 0.15,0.24 0.16,0.24 0.16,0.23 0.18,0.22 0.19,0.22 0.2,0.2 0.21,0.19 0.22,0.18 0.23,0.16 0.24,0.14 0.13,0.07 0.13,0.06 0.13,0.05 0.14,0.05 0.14,0.05 0.14,0.04 0.15,0.03 0.15,0.03 0.15,0.02 0.15,0.02 0.16,0.01 h 0.16 c 0.25,0 1.44,0 2.49,-0.64 -1.39,-0.25 -2.39,-1.5 -2.39,-2.69 0,-0.79 0.54,-1.75 1.89,-1.75 1.09,0 2.69,0.89 2.69,2.89 0,2.6 -2.94,3.28 -4.63,3.28 -2.89,0 -4.64,-2.64 -5.23,-3.78 -1.25,3.28 -3.94,3.78 -5.38,3.78 -5.19,0 -8.03,-6.42 -8.03,-7.67 0,-0.5 0.5,-0.5 0.61,-0.5 0.39,0 0.55,0.11 0.64,0.55 1.69,5.28 4.98,6.53 6.67,6.53 0.96,0 2.69,-0.44 2.69,-3.33 0,-1.54 -0.84,-4.89 -2.69,-11.86 -0.8,-3.09 -2.53,-5.18 -4.73,-5.18 -0.3,0 -1.44,0 -2.49,0.65 1.25,0.24 2.35,1.28 2.35,2.69 0,1.34 -1.1,1.73 -1.85,1.73 -1.5,0 -2.75,-1.29 -2.75,-2.89 0,-2.28 2.5,-3.28 4.69,-3.28 3.3,0 5.08,3.49 5.24,3.78 0.59,-1.84 2.39,-3.78 5.37,-3.78 5.14,0 7.98,6.42 7.98,7.67 0,0.5 -0.45,0.5 -0.61,0.5 -0.43,0 -0.54,-0.2 -0.64,-0.54 -1.64,-5.33 -5.03,-6.53 -6.62,-6.53 -1.95,0 -2.75,1.59 -2.75,3.29 0,1.1 0.3,2.19 0.86,4.38 z"
           inkscape:connector-curvature="0"
           style="fill:#000000;stroke-width:0" /></g>    </g>
    <g
       transform="matrix(0.39343693,0,0,0.37086485,86.094434,89.674105)"
       id="g6063">
      <g
         style="font-style:normal;font-variant:normal;font-weight:normal;font-stretch:normal;letter-spacing:normal;word-spacing:normal;text-anchor:start;fill:none;fill-opacity:1;fill-rule:evenodd;stroke:#000000;stroke-linecap:butt;stroke-linejoin:miter;stroke-miterlimit:10.43299961;stroke-dasharray:none;stroke-dashoffset:0;stroke-opacity:1"
         id="g6061"
         transform="matrix(0.3,0,0,-0.3,-52.5,222.75)"
         xml:space="preserve"
         stroke-miterlimit="10.433"
         font-style="normal"
         font-variant="normal"
         font-weight="normal"
         font-stretch="normal"
         font-size-adjust="none"
         letter-spacing="normal"
         word-spacing="normal"><path
           style="fill:#000000;stroke-width:0"
           inkscape:connector-curvature="0"
           d="m 463.19,421.45 -0.5,-0.34 -0.47,-0.35 -0.45,-0.35 -0.42,-0.35 -0.4,-0.36 -0.38,-0.36 -0.36,-0.36 -0.33,-0.37 -0.32,-0.36 -0.29,-0.37 -0.28,-0.36 -0.25,-0.36 -0.24,-0.36 -0.22,-0.36 -0.21,-0.35 -0.18,-0.35 -0.17,-0.34 -0.16,-0.34 -0.14,-0.33 -0.13,-0.32 -0.11,-0.32 -0.1,-0.3 -0.09,-0.3 -0.07,-0.28 -0.07,-0.28 -0.05,-0.26 -0.05,-0.25 -0.03,-0.24 -0.03,-0.22 -0.02,-0.21 -0.01,-0.19 v -0.17 c 0,-2.39 1.34,-3.8 1.45,-3.94 1.6,-1.66 2.05,-1.84 5.78,-3.25 l 6.02,-2.33 c 0.75,-0.36 1.75,-0.7 1.75,-2.16 0,-1.14 -0.89,-2.64 -2.44,-2.64 -2.18,0 -3.84,1.21 -4.39,1.61 -0.29,0.19 -0.34,0.24 -0.54,0.24 -0.4,0 -0.5,-0.35 -0.5,-0.55 0,-0.59 2.64,-2.39 5.43,-2.39 3.1,0 5.17,2.89 5.17,5.34 0,2.39 -1.84,3.29 -2.39,3.54 -0.68,0.25 -2.39,0.89 -3.03,1.14 -1,0.4 -2,0.79 -3.04,1.15 l -2.99,1.19 c -2.23,0.91 -3.73,2.34 -3.73,4.44 0,2.04 1.93,6.37 6.12,8.47 1.85,-0.66 3.35,-0.66 4.39,-0.66 1.49,0 4.63,0 4.63,1.55 0,1.25 -2.14,1.34 -4.08,1.34 l -0.05,-1.09 c 1.74,0 1.94,-0.05 2.83,-0.3 -0.39,-0.2 -0.89,-0.39 -3.19,-0.39 -1.14,0 -1.59,0 -2.48,0.39 v 0 c 1.14,0.3 2.23,0.3 2.84,0.3 l 0.05,1.09 c -0.91,0 -2.34,0 -4.19,-0.59 -1.29,1.29 -1.5,2.93 -1.5,3.89 0,2.78 1.8,6.62 5.53,8.47 0.91,-1.1 2.05,-1.1 3.19,-1.1 l 0.06,1.1 c -0.95,0 -1.54,0 -2.09,0.45 v 0 c 0.8,0.25 1.84,0.25 2.39,0.25 1.69,0 1.89,-0.06 2.78,-0.31 -0.39,-0.14 -0.89,-0.39 -3.08,-0.39 l -0.06,-1.1 c 1.25,0 4.44,0 4.44,1.55 0,1.3 -2.19,1.34 -4.14,1.34 -0.64,0 -1.85,0 -3.13,-0.25 -0.15,0.44 -0.25,0.8 -0.25,1.64 0,0.71 0.25,1.75 0.25,1.85 0,0.39 -0.25,0.64 -0.61,0.64 -0.89,0 -0.89,-2.28 -0.89,-2.44 0,-1 0.3,-1.73 0.35,-1.94 -5.33,-1.5 -8.72,-5.48 -8.72,-9.31 0,-1.84 0.9,-3.94 3.23,-5.28 z"
           id="path6059" /></g>    </g>
    <g
       id="g4599"
       transform="matrix(0.83347278,0,0,0.94835146,43.328743,65.31092)">
      <g
         word-spacing="normal"
         letter-spacing="normal"
         font-size-adjust="none"
         font-stretch="normal"
         font-weight="normal"
         font-variant="normal"
         font-style="normal"
         stroke-miterlimit="10.433"
         xml:space="preserve"
         transform="matrix(0.3,0,0,-0.3,-52.5,222.75)"
         id="g4597"
         style="font-style:normal;font-variant:normal;font-weight:normal;font-stretch:normal;letter-spacing:normal;word-spacing:normal;text-anchor:start;fill:none;fill-opacity:1;fill-rule:evenodd;stroke:#000000;stroke-linecap:butt;stroke-linejoin:miter;stroke-miterlimit:10.43299961;stroke-dasharray:none;stroke-dashoffset:0;stroke-opacity:1"><path
           id="path4593"
           d="m 493.54,436.39 0.04,0.16 0.04,0.16 0.04,0.15 0.04,0.14 0.04,0.14 0.04,0.13 0.04,0.12 0.05,0.11 0.05,0.11 0.05,0.11 0.06,0.09 0.07,0.09 0.07,0.09 0.08,0.08 0.09,0.07 0.09,0.07 0.11,0.06 0.11,0.06 0.13,0.05 0.14,0.05 0.15,0.04 0.16,0.04 0.09,0.02 0.09,0.02 0.09,0.01 0.1,0.02 0.1,0.01 0.1,0.01 0.11,0.02 0.11,0.01 0.12,0.01 h 0.12 l 0.13,0.01 0.13,0.01 0.13,0.01 h 0.14 0.14 l 0.15,0.01 h 0.15 0.16 0.16 0.17 c 1.3,0 1.69,0 1.69,1 0,0.55 -0.55,0.55 -0.7,0.55 -1.39,0 -4.97,-0.16 -6.38,-0.16 -1.44,0 -4.98,0.16 -6.42,0.16 -0.39,0 -0.95,0 -0.95,-1 0,-0.55 0.45,-0.55 1.4,-0.55 0.1,0 1.05,0 1.89,-0.09 0.89,-0.11 1.35,-0.16 1.35,-0.8 0,-0.2 -0.05,-0.31 -0.21,-0.95 l -2.98,-12.16 h -15.2 l 2.95,11.71 c 0.44,1.79 0.59,2.29 4.17,2.29 1.3,0 1.71,0 1.71,1 0,0.55 -0.55,0.55 -0.71,0.55 -1.39,0 -4.98,-0.16 -6.37,-0.16 -1.44,0 -4.99,0.16 -6.42,0.16 -0.41,0 -0.96,0 -0.96,-1 0,-0.55 0.46,-0.55 1.39,-0.55 0.11,0 1.05,0 1.91,-0.09 0.89,-0.11 1.34,-0.16 1.34,-0.8 0,-0.2 -0.06,-0.36 -0.2,-0.95 l -6.67,-26.75 c -0.5,-1.95 -0.61,-2.34 -4.55,-2.34 -0.89,0 -1.34,0 -1.34,-1 0,-0.55 0.61,-0.55 0.7,-0.55 1.39,0 4.94,0.16 6.33,0.16 1.05,0 2.14,-0.07 3.19,-0.07 1.09,0 2.18,-0.09 3.23,-0.09 0.41,0 1,0 1,1 0,0.55 -0.45,0.55 -1.39,0.55 -1.84,0 -3.23,0 -3.23,0.89 0,0.29 0.09,0.54 0.14,0.84 l 3.39,13.66 H 486 c -2.09,-8.27 -3.23,-13 -3.43,-13.75 -0.49,-1.6 -1.44,-1.64 -4.53,-1.64 -0.75,0 -1.19,0 -1.19,-1 0,-0.55 0.59,-0.55 0.69,-0.55 1.4,0 4.93,0.16 6.32,0.16 1.05,0 2.14,-0.07 3.19,-0.07 1.11,0 2.2,-0.09 3.25,-0.09 0.39,0 0.99,0 0.99,1 0,0.55 -0.44,0.55 -1.4,0.55 -1.84,0 -3.23,0 -3.23,0.89 0,0.29 0.09,0.54 0.14,0.84 z"
           inkscape:connector-curvature="0"
           style="fill:#000000;stroke-width:0" /><path
           id="path4595"
           d="m 510.69,407.2 4.81,4.84 c 0.83,0.24 1.73,0.24 3.23,0.24 v 1.95 c -1.11,-0.11 -2.26,-0.14 -3.37,-0.14 -1.19,0 -3.59,0.11 -3.88,0.14 v -1.95 c 0.46,0 0.71,-0.07 0.94,-0.21 l -3.26,-3.31 -3.39,3.52 h 0.95 v 1.95 c -0.22,0 -2.97,-0.14 -4.44,-0.14 -1.31,0 -2.61,0.03 -3.94,0.14 v -1.95 h 2.63 l 5.7,-5.96 -5.01,-5.04 c -0.46,-0.42 -0.49,-0.46 -1.57,-0.53 -0.56,-0.04 -1.78,-0.04 -1.95,-0.04 v -1.95 c 1.11,0.11 2.27,0.14 3.38,0.14 0.95,0 3.42,-0.11 3.87,-0.14 v 1.95 c -0.56,0 -0.7,0.07 -0.94,0.24 l 3.77,3.76 3.86,-4 h -0.91 v -1.95 c 0.03,0 2.83,0.14 4.42,0.14 1.3,0 2.63,-0.03 3.91,-0.14 v 1.95 h -2.58 z"
           inkscape:connector-curvature="0"
           style="fill:#000000;stroke-width:0" /></g>    </g>
  </g>
</svg>
